<svg xmlns="http://www.w3.org/2000/svg" xmlns:xlink="http://www.w3.org/1999/xlink" id="Layer_1" x="0px" y="0px" width="200px" height="95.2px" viewBox="0 0 200 95.2" xml:space="preserve"><g>	<path fill="#252F3E" d="M78,44.3c0,1.1,0.1,2,0.3,2.6c0.2,0.6,0.5,1.3,0.9,2.1c0.1,0.2,0.2,0.5,0.2,0.7c0,0.3-0.2,0.6-0.6,0.9  L77,51.7c-0.3,0.2-0.5,0.3-0.8,0.3c-0.3,0-0.6-0.1-0.9-0.4c-0.4-0.4-0.8-0.9-1.1-1.4c-0.3-0.5-0.6-1.1-0.9-1.7  c-2.3,2.7-5.1,4-8.6,4c-2.5,0-4.4-0.7-5.8-2.1c-1.4-1.4-2.2-3.3-2.2-5.6c0-2.5,0.9-4.5,2.7-6s4.1-2.3,7.1-2.3c1,0,2,0.1,3.1,0.2  c1.1,0.1,2.2,0.4,3.4,0.6v-2.1c0-2.2-0.5-3.8-1.4-4.7c-0.9-0.9-2.5-1.3-4.8-1.3c-1,0-2.1,0.1-3.2,0.4c-1.1,0.3-2.1,0.6-3.2,1  c-0.5,0.2-0.8,0.3-1,0.4c-0.2,0.1-0.4,0.1-0.5,0.1c-0.4,0-0.6-0.3-0.6-0.9v-1.4c0-0.5,0.1-0.8,0.2-1c0.1-0.2,0.4-0.4,0.8-0.6  c1-0.5,2.2-1,3.7-1.3c1.4-0.4,2.9-0.6,4.6-0.6c3.5,0,6,0.8,7.6,2.4c1.6,1.6,2.4,4,2.4,7.2L78,44.3L78,44.3z M66.1,48.7  c1,0,2-0.2,3-0.5c1.1-0.4,2-1,2.8-1.9c0.5-0.6,0.8-1.2,1-1.9c0.2-0.7,0.3-1.5,0.3-2.5v-1.2c-0.8-0.2-1.8-0.4-2.7-0.5  S68.7,40,67.8,40c-2,0-3.4,0.4-4.3,1.2c-1,0.8-1.4,1.9-1.4,3.4c0,1.4,0.4,2.4,1.1,3.1C63.8,48.3,64.8,48.7,66.1,48.7z M89.5,51.8  c-0.5,0-0.9-0.1-1.1-0.3c-0.2-0.2-0.4-0.6-0.6-1.1L81,27.9c-0.2-0.6-0.3-1-0.3-1.2c0-0.5,0.2-0.7,0.7-0.7h2.9  c0.6,0,0.9,0.1,1.1,0.3c0.2,0.2,0.4,0.6,0.6,1.1l4.9,19.3l4.6-19.3c0.1-0.6,0.3-1,0.6-1.1s0.6-0.3,1.2-0.3h2.3  c0.6,0,0.9,0.1,1.2,0.3c0.2,0.2,0.4,0.6,0.6,1.1l4.6,19.5l5-19.5c0.2-0.6,0.4-1,0.6-1.1c0.2-0.2,0.6-0.3,1.1-0.3h2.7  c0.5,0,0.7,0.2,0.7,0.7c0,0.1,0,0.3-0.1,0.5s-0.1,0.4-0.2,0.7l-7,22.6c-0.2,0.6-0.4,1-0.6,1.1c-0.2,0.2-0.6,0.3-1.1,0.3h-2.5  c-0.6,0-0.9-0.1-1.2-0.3s-0.4-0.6-0.6-1.2l-4.5-18.8l-4.5,18.8c-0.1,0.6-0.3,1-0.6,1.2c-0.2,0.2-0.6,0.3-1.2,0.3H89.5z M127,52.6  c-1.5,0-3-0.2-4.5-0.5c-1.5-0.4-2.6-0.7-3.4-1.2c-0.5-0.3-0.8-0.6-0.9-0.8c-0.1-0.3-0.2-0.6-0.2-0.8v-1.5c0-0.6,0.2-0.9,0.7-0.9  c0.2,0,0.4,0,0.5,0.1c0.2,0.1,0.4,0.2,0.7,0.3c1,0.4,2.1,0.8,3.2,1c1.2,0.2,2.3,0.4,3.5,0.4c1.8,0,3.3-0.3,4.3-1  c1-0.6,1.5-1.6,1.5-2.8c0-0.8-0.3-1.5-0.8-2c-0.5-0.6-1.5-1.1-2.9-1.5l-4.2-1.3c-2.1-0.7-3.7-1.7-4.7-3c-1-1.3-1.5-2.7-1.5-4.2  c0-1.2,0.3-2.3,0.8-3.2c0.5-0.9,1.2-1.8,2.1-2.4c0.9-0.7,1.9-1.2,3-1.5c1.2-0.4,2.4-0.5,3.7-0.5c0.6,0,1.3,0,2,0.1  c0.7,0.1,1.3,0.2,1.9,0.3c0.6,0.1,1.1,0.3,1.7,0.5s0.9,0.4,1.2,0.5c0.4,0.2,0.7,0.5,0.9,0.7c0.2,0.2,0.3,0.6,0.3,1v1.4  c0,0.6-0.2,0.9-0.7,0.9c-0.2,0-0.6-0.1-1.1-0.4c-1.7-0.8-3.5-1.1-5.6-1.1c-1.7,0-3,0.3-3.9,0.8s-1.4,1.4-1.4,2.6  c0,0.8,0.3,1.5,0.9,2.1c0.6,0.6,1.7,1.1,3.2,1.6l4.1,1.3c2.1,0.7,3.6,1.6,4.5,2.8s1.3,2.6,1.3,4.1c0,1.3-0.3,2.4-0.8,3.4  c-0.5,1-1.2,1.9-2.1,2.6c-0.9,0.7-2,1.3-3.2,1.6C129.9,52.4,128.5,52.6,127,52.6z"></path>	<g>		<path fill-rule="evenodd" clip-rule="evenodd" fill="#FF9900" d="M132.5,66.8C122.9,73.9,109,77.7,97,77.7   c-16.8,0-31.9-6.2-43.4-16.5c-0.9-0.8-0.1-1.9,1-1.3C67,67,82.2,71.4,98,71.4c10.6,0,22.3-2.2,33.1-6.8   C132.7,63.9,134.1,65.6,132.5,66.8z"></path>		<path fill-rule="evenodd" clip-rule="evenodd" fill="#FF9900" d="M136.5,62.3c-1.2-1.6-8.1-0.8-11.2-0.4c-0.9,0.1-1.1-0.7-0.2-1.3   c5.5-3.9,14.5-2.7,15.5-1.5c1.1,1.3-0.3,10.3-5.4,14.6c-0.8,0.7-1.5,0.3-1.2-0.6C135.2,70.3,137.8,63.8,136.5,62.3z"></path>	</g></g></svg>